# 3ds Max Wavefront OBJ Exporter v0.97b - (c)2007 guruware
# File Created: 24.01.2015 14:22:01

mtllib canon.mtl

#
# object Cylinder001
#

v  16.6732 4.4414 19.9260
v  16.2462 2.0772 21.0319
v  10.8273 -4.2835 5.8027
v  11.3165 -1.5746 4.5356
v  15.0169 0.1213 22.3197
v  9.4188 -6.5244 7.2782
v  13.1335 -1.1902 23.6340
v  7.2608 -8.0271 8.7841
v  10.8231 -1.6992 24.8164
v  4.6137 -8.6103 10.1388
v  8.3644 -1.3444 25.7241
v  1.7967 -8.2037 11.1789
v  6.0541 -0.1684 26.2478
v  -0.8504 -6.8564 11.7789
v  4.1706 1.6868 26.3243
v  -3.0083 -4.7308 11.8665
v  2.9413 3.9974 25.9443
v  -4.4168 -2.0833 11.4311
v  2.5144 6.4849 25.1537
v  -4.9060 0.7667 10.5253
v  2.9413 8.8492 24.0478
v  -4.4168 3.4755 9.2582
v  4.1706 10.8050 22.7600
v  -3.0083 5.7165 7.7827
v  6.0541 12.1166 21.4457
v  -0.8504 7.2192 6.2768
v  8.3644 12.6256 20.2633
v  1.7967 7.8024 4.9221
v  10.8231 12.2708 19.3555
v  4.6137 7.3958 3.8820
v  13.1335 11.0948 18.8318
v  7.2608 6.0485 3.2820
v  15.0169 9.2396 18.7554
v  9.4188 3.9229 3.1944
v  16.2462 6.9289 19.1354
v  10.8273 1.2754 3.6297
v  4.3036 -8.8908 -7.0265
v  4.7305 -6.5265 -8.1324
v  3.0742 -10.8466 -5.7387
v  1.1908 -12.1581 -4.4244
v  -1.1196 -12.6672 -3.2420
v  -3.5782 -12.3123 -2.3342
v  -5.8886 -11.1364 -1.8105
v  -7.7720 -9.2812 -1.7341
v  -9.0014 -6.9705 -2.1141
v  -9.4283 -4.4830 -2.9047
v  -9.0014 -2.1188 -4.0106
v  -7.7720 -0.1629 -5.2984
v  -5.8886 1.1486 -6.6127
v  -3.5782 1.6576 -7.7951
v  -1.1196 1.3028 -8.7029
v  1.1908 0.1269 -9.2266
v  3.0742 -1.7283 -9.3030
v  4.3036 -4.0390 -8.9230
v  -3.7538 -16.2905 -25.9567
v  -3.3269 -13.9263 -27.0626
v  -4.9831 -18.2464 -24.6689
v  -6.8666 -19.5579 -23.3546
v  -9.1770 -20.0670 -22.1722
v  -11.6356 -19.7121 -21.2645
v  -13.9460 -18.5362 -20.7408
v  -15.8294 -16.6810 -20.6643
v  -17.0587 -14.3703 -21.0443
v  -17.4857 -11.8828 -21.8349
v  -17.0587 -9.5186 -22.9408
v  -15.8294 -7.5627 -24.2286
v  -13.9460 -6.2512 -25.5429
v  -11.6356 -5.7421 -26.7253
v  -9.1770 -6.0970 -27.6331
v  -6.8666 -7.2729 -28.1568
v  -4.9832 -9.1281 -28.2333
v  -3.7538 -11.4388 -27.8533
# 72 vertices

vn 0.9771 -0.0774 -0.1981
vn 0.9218 -0.3838 -0.0548
vn 0.8692 -0.4486 -0.2082
vn 0.9252 -0.1381 -0.3534
vn 0.7625 -0.6372 0.1120
vn 0.7077 -0.7054 -0.0391
vn 0.5185 -0.8071 0.2823
vn 0.4604 -0.8776 0.1335
vn 0.2191 -0.8731 0.4355
vn 0.1571 -0.9444 0.2887
vn -0.0995 -0.8271 0.5532
vn -0.1657 -0.8978 0.4079
vn -0.3988 -0.6748 0.6210
vn -0.4691 -0.7434 0.4767
vn -0.6429 -0.4344 0.6309
vn -0.7164 -0.4998 0.4867
vn -0.8021 -0.1350 0.5817
vn -0.8778 -0.1964 0.4368
vn -0.8575 0.1873 0.4792
vn -0.9339 0.1302 0.3330
vn -0.8021 0.4937 0.3359
vn -0.8778 0.4406 0.1878
vn -0.6429 0.7471 0.1691
vn -0.7164 0.6974 0.0187
vn -0.3988 0.9170 -0.0012
vn -0.4691 0.8696 -0.1538
vn -0.0995 0.9830 -0.1544
vn -0.1657 0.9365 -0.3091
vn 0.2191 0.9370 -0.2720
vn 0.1571 0.8899 -0.4283
vn 0.5185 0.7846 -0.3399
vn 0.4604 0.7355 -0.4971
vn 0.7625 0.5443 -0.3498
vn 0.7077 0.4919 -0.5071
vn 0.9218 0.2449 -0.3006
vn 0.8692 0.1885 -0.4572
vn 0.8349 -0.4746 -0.2788
vn 0.8907 -0.1655 -0.4234
vn 0.6742 -0.7303 -0.1105
vn 0.4280 -0.9017 0.0613
vn 0.1259 -0.9683 0.2159
vn -0.1955 -0.9219 0.3346
vn -0.4975 -0.7681 0.4030
vn -0.7437 -0.5256 0.4130
vn -0.9044 -0.2235 0.3634
vn -0.9602 0.1016 0.2600
vn -0.9044 0.4107 0.1154
vn -0.7437 0.6664 -0.0529
vn -0.4975 0.8378 -0.2247
vn -0.1955 0.9044 -0.3793
vn 0.1259 0.8580 -0.4980
vn 0.4280 0.7043 -0.5664
vn 0.6742 0.4617 -0.5764
vn 0.8349 0.1597 -0.5268
vn 0.8736 -0.4446 -0.1980
vn 0.9296 -0.1342 -0.3432
vn 0.7121 -0.7015 -0.0289
vn 0.4648 -0.8737 0.1437
vn 0.1614 -0.9405 0.2989
vn -0.1614 -0.8939 0.4181
vn -0.4648 -0.7395 0.4869
vn -0.7121 -0.4959 0.4970
vn -0.8736 -0.1925 0.4471
vn -0.9296 0.1342 0.3432
vn -0.8736 0.4446 0.1980
vn -0.7121 0.7015 0.0289
vn -0.4648 0.8737 -0.1437
vn -0.1614 0.9405 -0.2989
vn 0.1614 0.8939 -0.4181
vn 0.4648 0.7395 -0.4869
vn 0.7121 0.4959 -0.4970
vn 0.8736 0.1925 -0.4471
vn 0.3685 0.3384 0.8658
vn -0.3685 -0.3384 -0.8658
vn -0.3685 -0.3385 -0.8658
# 75 vertex normals

vt 0.7500 0.0000 1.0000
vt 0.6944 0.0000 1.0000
vt 0.6944 0.3333 1.0000
vt 0.7500 0.3333 1.0000
vt 0.6389 0.0000 1.0000
vt 0.6389 0.3333 1.0000
vt 0.5833 0.0000 1.0000
vt 0.5833 0.3333 1.0000
vt 0.5278 0.0000 1.0000
vt 0.5278 0.3333 1.0000
vt 0.4722 0.0000 1.0000
vt 0.4722 0.3333 1.0000
vt 0.4167 0.0000 1.0000
vt 0.4167 0.3333 1.0000
vt 0.3611 0.0000 1.0000
vt 0.3611 0.3333 1.0000
vt 0.3056 0.0000 1.0000
vt 0.3056 0.3333 1.0000
vt 0.2500 0.0000 1.0000
vt 0.2500 0.3333 1.0000
vt 0.1944 0.0000 1.0000
vt 0.1944 0.3333 1.0000
vt 0.1389 0.0000 1.0000
vt 0.1389 0.3333 1.0000
vt 0.0833 0.0000 1.0000
vt 0.0833 0.3333 1.0000
vt 0.0278 0.0000 1.0000
vt 0.0278 0.3333 1.0000
vt -0.0278 0.0000 1.0000
vt -0.0278 0.3333 1.0000
vt 0.9722 0.0000 1.0000
vt 0.9167 0.0000 1.0000
vt 0.9167 0.3333 1.0000
vt 0.9722 0.3333 1.0000
vt 0.8611 0.0000 1.0000
vt 0.8611 0.3333 1.0000
vt 0.8056 0.0000 1.0000
vt 0.8056 0.3333 1.0000
vt 0.6944 0.6667 1.0000
vt 0.7500 0.6667 1.0000
vt 0.6389 0.6667 1.0000
vt 0.5833 0.6667 1.0000
vt 0.5278 0.6667 1.0000
vt 0.4722 0.6667 1.0000
vt 0.4167 0.6667 1.0000
vt 0.3611 0.6667 1.0000
vt 0.3056 0.6667 1.0000
vt 0.2500 0.6667 1.0000
vt 0.1944 0.6667 1.0000
vt 0.1389 0.6667 1.0000
vt 0.0833 0.6667 1.0000
vt 0.0278 0.6667 1.0000
vt -0.0278 0.6667 1.0000
vt 0.9167 0.6667 1.0000
vt 0.9722 0.6667 1.0000
vt 0.8611 0.6667 1.0000
vt 0.8056 0.6667 1.0000
vt 0.6944 1.0000 1.0000
vt 0.7500 1.0000 1.0000
vt 0.6389 1.0000 1.0000
vt 0.5833 1.0000 1.0000
vt 0.5278 1.0000 1.0000
vt 0.4722 1.0000 1.0000
vt 0.4167 1.0000 1.0000
vt 0.3611 1.0000 1.0000
vt 0.3056 1.0000 1.0000
vt 0.2500 1.0000 1.0000
vt 0.1944 1.0000 1.0000
vt 0.1389 1.0000 1.0000
vt 0.0833 1.0000 1.0000
vt 0.0278 1.0000 1.0000
vt -0.0278 1.0000 1.0000
vt 0.9167 1.0000 1.0000
vt 0.9722 1.0000 1.0000
vt 0.8611 1.0000 1.0000
vt 0.8056 1.0000 1.0000
vt 0.1786 0.8830 -0.2500
vt 0.0670 0.7500 -0.2500
vt 0.0076 0.5868 -0.2500
vt 0.5000 1.0000 -0.2500
vt 0.0076 0.4132 -0.2500
vt 0.0670 0.2500 -0.2500
vt 0.3290 0.0302 -0.2500
vt 0.1786 0.1170 -0.2500
vt 0.5000 0.0000 -0.2500
vt 0.6710 0.0302 -0.2500
vt 0.9330 0.2500 -0.2500
vt 0.8214 0.1170 -0.2500
vt 0.9924 0.4132 -0.2500
vt 0.9924 0.5868 -0.2500
vt 0.8214 0.8830 -0.2500
vt 0.9330 0.7500 -0.2500
vt 0.6710 0.9698 -0.2500
vt 0.3290 0.9698 -0.2500
vt 0.6710 0.9698 0.2500
vt 0.8214 0.8830 0.2500
vt 0.9330 0.7500 0.2500
vt 0.3290 0.9698 0.2500
vt 0.9924 0.5868 0.2500
vt 0.9924 0.4132 0.2500
vt 0.8214 0.1170 0.2500
vt 0.9330 0.2500 0.2500
vt 0.6710 0.0302 0.2500
vt 0.5000 0.0000 0.2500
vt 0.1786 0.1170 0.2500
vt 0.3290 0.0302 0.2500
vt 0.0670 0.2500 0.2500
vt 0.0076 0.4132 0.2500
vt 0.0670 0.7500 0.2500
vt 0.0076 0.5868 0.2500
vt 0.1786 0.8830 0.2500
vt 0.5000 1.0000 0.2500
# 112 texture coords

g Cylinder001
usemtl wire_214229166
s 8
f 1/1/1 2/2/2 3/3/3 4/4/4 
f 2/2/2 5/5/5 6/6/6 3/3/3 
f 5/5/5 7/7/7 8/8/8 6/6/6 
f 7/7/7 9/9/9 10/10/10 8/8/8 
f 9/9/9 11/11/11 12/12/12 10/10/10 
f 11/11/11 13/13/13 14/14/14 12/12/12 
f 13/13/13 15/15/15 16/16/16 14/14/14 
f 15/15/15 17/17/17 18/18/18 16/16/16 
f 17/17/17 19/19/19 20/20/20 18/18/18 
f 19/19/19 21/21/21 22/22/22 20/20/20 
f 21/21/21 23/23/23 24/24/24 22/22/22 
f 23/23/23 25/25/25 26/26/26 24/24/24 
f 25/25/25 27/27/27 28/28/28 26/26/26 
f 27/27/27 29/29/29 30/30/30 28/28/28 
f 29/31/29 31/32/31 32/33/32 30/34/30 
f 31/32/31 33/35/33 34/36/34 32/33/32 
f 33/35/33 35/37/35 36/38/36 34/36/34 
f 35/37/35 1/1/1 4/4/4 36/38/36 
f 4/4/4 3/3/3 37/39/37 38/40/38 
f 3/3/3 6/6/6 39/41/39 37/39/37 
f 6/6/6 8/8/8 40/42/40 39/41/39 
f 8/8/8 10/10/10 41/43/41 40/42/40 
f 10/10/10 12/12/12 42/44/42 41/43/41 
f 12/12/12 14/14/14 43/45/43 42/44/42 
f 14/14/14 16/16/16 44/46/44 43/45/43 
f 16/16/16 18/18/18 45/47/45 44/46/44 
f 18/18/18 20/20/20 46/48/46 45/47/45 
f 20/20/20 22/22/22 47/49/47 46/48/46 
f 22/22/22 24/24/24 48/50/48 47/49/47 
f 24/24/24 26/26/26 49/51/49 48/50/48 
f 26/26/26 28/28/28 50/52/50 49/51/49 
f 28/28/28 30/30/30 51/53/51 50/52/50 
f 30/34/30 32/33/32 52/54/52 51/55/51 
f 32/33/32 34/36/34 53/56/53 52/54/52 
f 34/36/34 36/38/36 54/57/54 53/56/53 
f 36/38/36 4/4/4 38/40/38 54/57/54 
f 38/40/38 37/39/37 55/58/55 56/59/56 
f 37/39/37 39/41/39 57/60/57 55/58/55 
f 39/41/39 40/42/40 58/61/58 57/60/57 
f 40/42/40 41/43/41 59/62/59 58/61/58 
f 41/43/41 42/44/42 60/63/60 59/62/59 
f 42/44/42 43/45/43 61/64/61 60/63/60 
f 43/45/43 44/46/44 62/65/62 61/64/61 
f 44/46/44 45/47/45 63/66/63 62/65/62 
f 45/47/45 46/48/46 64/67/64 63/66/63 
f 46/48/46 47/49/47 65/68/65 64/67/64 
f 47/49/47 48/50/48 66/69/66 65/68/65 
f 48/50/48 49/51/49 67/70/67 66/69/66 
f 49/51/49 50/52/50 68/71/68 67/70/67 
f 50/52/50 51/53/51 69/72/69 68/71/68 
f 51/55/51 52/54/52 70/73/70 69/74/69 
f 52/54/52 53/56/53 71/75/71 70/73/70 
f 53/56/53 54/57/54 72/76/72 71/75/71 
f 54/57/54 38/40/38 56/59/56 72/76/72 
s 1
f 33/77/73 31/78/73 29/79/73 1/80/73 
f 29/79/73 27/81/73 25/82/73 21/83/73 
f 25/82/73 23/84/73 21/83/73 
f 21/83/73 19/85/73 17/86/73 13/87/73 
f 17/86/73 15/88/73 13/87/73 
f 13/87/73 11/89/73 9/90/73 5/91/73 
f 9/90/73 7/92/73 5/91/73 
f 21/83/73 13/87/73 5/91/73 29/79/73 
f 5/91/73 2/93/73 1/80/73 29/79/73 
f 35/94/73 33/77/73 1/80/73 
f 55/95/74 57/96/75 58/97/74 72/98/74 
f 58/97/74 59/99/75 60/100/74 62/101/74 
f 60/100/74 61/102/74 62/101/74 
f 62/101/74 63/103/74 64/104/74 66/105/74 
f 64/104/74 65/106/74 66/105/74 
f 66/105/74 67/107/74 68/108/74 70/109/74 
f 68/108/74 69/110/74 70/109/74 
f 62/101/74 66/105/74 70/109/74 58/97/74 
f 70/109/74 71/111/74 72/98/74 58/97/74 
f 56/112/74 55/95/74 72/98/74 
# 66 polygons - 8 triangles

