# 3ds Max Wavefront OBJ Exporter v0.97b - (c)2007 guruware
# File Created: 24.01.2015 15:20:37

mtllib base_punch.mtl

#
# object Object001
#

v  -6.7495 -30.2445 5.2470
v  -6.7495 -30.2445 -0.0000
v  -2.2498 -30.2445 -0.0000
v  -2.2498 -30.2445 5.2470
v  0.0000 -30.2445 -0.0000
v  0.0000 -30.2445 5.2470
v  -6.7495 -30.2445 -5.2470
v  -2.2498 -30.2445 -5.2470
v  0.0000 -30.2445 -5.2470
v  -2.2498 30.2445 5.2470
v  -6.7495 30.2445 5.2470
v  -6.7495 -19.0292 5.2470
v  -2.2498 -19.0292 5.2470
v  -6.7495 30.2445 -0.0000
v  -6.7495 -19.0292 -0.0000
v  -6.7495 30.2445 -5.2470
v  -6.7495 -19.0292 -5.2470
v  -2.2498 30.2445 -5.2470
v  -2.2498 -19.0292 -5.2470
v  0.0000 30.2445 -5.2470
v  0.0000 -19.0292 -5.2470
v  0.0000 30.2445 5.2470
v  0.0000 -19.0292 5.2470
v  -2.2498 -19.0292 19.2412
v  -16.6449 -19.0292 15.1424
v  -16.6449 -30.2445 15.1424
v  -2.2498 -30.2445 19.2412
v  -20.7437 -19.0292 -0.0000
v  -20.7437 -30.2445 -0.0000
v  -16.6449 -19.0292 -15.1424
v  -16.6449 -30.2445 -15.1424
v  -2.2498 -19.0292 -19.2412
v  -2.2498 -30.2445 -19.2412
v  0.0000 -19.0292 -18.4819
v  0.0000 -30.2445 -18.4819
v  0.0000 -30.2445 18.4819
v  0.0000 -19.0292 18.4819
v  6.7495 -30.2445 5.2470
v  2.2498 -30.2445 5.2470
v  2.2498 -30.2445 -0.0000
v  6.7495 -30.2445 -0.0000
v  2.2498 -30.2445 -5.2470
v  6.7495 -30.2445 -5.2470
v  2.2498 30.2445 5.2470
v  2.2498 -19.0292 5.2470
v  6.7495 -19.0292 5.2470
v  6.7495 30.2445 5.2470
v  6.7495 -19.0292 -0.0000
v  6.7495 30.2445 -0.0000
v  6.7495 -19.0292 -5.2470
v  6.7495 30.2445 -5.2470
v  2.2498 -19.0292 -5.2470
v  2.2498 30.2445 -5.2470
v  2.2498 -19.0292 19.2412
v  2.2498 -30.2445 19.2412
v  16.6449 -30.2445 15.1424
v  16.6449 -19.0292 15.1424
v  20.7437 -30.2445 -0.0000
v  20.7437 -19.0292 -0.0000
v  16.6449 -30.2445 -15.1424
v  16.6449 -19.0292 -15.1424
v  2.2498 -30.2445 -19.2412
v  2.2498 -19.0292 -19.2412
# 63 vertices

vn 0.0000 -1.0000 -0.0000
vn 0.0000 0.0000 1.0000
vn -1.0000 0.0000 -0.0000
vn 0.0000 0.0000 -1.0000
vn -0.2739 0.0000 0.9618
vn -0.9653 0.0000 0.2613
vn -0.9653 0.0000 -0.2613
vn -0.2739 0.0000 -0.9618
vn 0.3198 0.0000 -0.9475
vn 0.0000 1.0000 -0.0000
vn 0.3198 0.0000 0.9475
vn 1.0000 0.0000 -0.0000
vn 0.2739 0.0000 0.9618
vn 0.9653 0.0000 0.2613
vn 0.9653 0.0000 -0.2613
vn 0.2739 0.0000 -0.9618
vn -0.3198 0.0000 -0.9475
vn -0.0000 1.0000 -0.0000
vn -0.3198 0.0000 0.9475
# 19 vertex normals

vt 0.8000 0.2500 0.0000
vt 0.8000 0.5000 0.0000
vt 0.6000 0.5000 0.0000
vt 0.6000 0.2500 0.0000
vt 0.5000 0.5000 0.0000
vt 0.5000 0.2500 0.0000
vt 0.8000 0.7500 0.0000
vt 0.6000 0.7500 0.0000
vt 0.5000 0.7500 0.0000
vt 0.5815 0.7500 0.0000
vt 0.5815 0.2500 0.0000
# 11 texture coords

g Object001
usemtl wire_006135006
s 2
f 1/1/1 2/2/1 3/3/1 4/4/1 
f 3/3/1 5/5/1 6/6/1 4/4/1 
f 2/2/1 7/7/1 8/8/1 3/3/1 
f 8/8/1 9/9/1 5/5/1 3/3/1 
s off
f 10/4/2 11/1/2 12/1/2 13/4/2 
f 11/1/3 14/2/3 15/2/3 12/1/3 
f 14/2/3 16/7/3 17/7/3 15/2/3 
f 16/7/4 18/8/4 19/8/4 17/7/4 
f 18/8/4 20/9/4 21/9/4 19/8/4 
f 22/6/2 10/4/2 13/4/2 23/6/2 
f 24/4/5 25/1/5 26/1/5 27/4/5 
f 25/1/6 28/2/6 29/2/6 26/1/6 
f 28/2/7 30/7/7 31/7/7 29/2/7 
f 30/7/8 32/8/8 33/8/8 31/7/8 
f 34/10/9 35/10/9 33/8/9 32/8/9 
f 13/4/10 12/1/10 25/1/10 24/4/10 
f 12/1/10 15/2/10 28/2/10 25/1/10 
f 15/2/10 17/7/10 30/7/10 28/2/10 
f 17/7/10 19/8/10 32/8/10 30/7/10 
f 19/8/10 21/9/10 34/10/10 32/8/10 
f 1/1/1 4/4/1 27/4/1 26/1/1 
f 4/4/1 6/6/1 36/11/1 27/4/1 
f 8/8/1 7/7/1 31/7/1 33/8/1 
f 7/7/1 2/2/1 29/2/1 31/7/1 
f 2/2/1 1/1/1 26/1/1 29/2/1 
f 24/4/11 27/4/11 36/11/11 37/11/11 
f 23/6/10 13/4/10 24/4/10 37/11/10 
f 9/9/1 8/8/1 33/8/1 35/10/1 
s 2
f 38/1/1 39/4/1 40/3/1 41/2/1 
f 40/3/1 39/4/1 6/6/1 5/5/1 
f 41/2/1 40/3/1 42/8/1 43/7/1 
f 42/8/1 40/3/1 5/5/1 9/9/1 
s off
f 44/4/2 45/4/2 46/1/2 47/1/2 
f 47/1/12 46/1/12 48/2/12 49/2/12 
f 49/2/12 48/2/12 50/7/12 51/7/12 
f 51/7/4 50/7/4 52/8/4 53/8/4 
f 53/8/4 52/8/4 21/9/4 20/9/4 
f 22/6/2 23/6/2 45/4/2 44/4/2 
f 54/4/13 55/4/13 56/1/13 57/1/13 
f 57/1/14 56/1/14 58/2/14 59/2/14 
f 59/2/15 58/2/15 60/7/15 61/7/15 
f 61/7/16 60/7/16 62/8/16 63/8/16 
f 34/10/17 63/8/17 62/8/17 35/10/17 
f 45/4/10 54/4/10 57/1/10 46/1/10 
f 46/1/10 57/1/10 59/2/10 48/2/10 
f 48/2/10 59/2/10 61/7/10 50/7/10 
f 50/7/10 61/7/10 63/8/10 52/8/10 
f 52/8/18 63/8/18 34/10/18 21/9/18 
f 38/1/1 56/1/1 55/4/1 39/4/1 
f 39/4/1 55/4/1 36/11/1 6/6/1 
f 42/8/1 62/8/1 60/7/1 43/7/1 
f 43/7/1 60/7/1 58/2/1 41/2/1 
f 41/2/1 58/2/1 56/1/1 38/1/1 
f 54/4/19 37/11/19 36/11/19 55/4/19 
f 23/6/10 37/11/10 54/4/10 45/4/10 
f 9/9/1 35/10/1 62/8/1 42/8/1 
# 56 polygons

