# 3ds Max Wavefront OBJ Exporter v0.97b - (c)2007 guruware
# File Created: 25.01.2015 10:06:44

mtllib Punch_base.mtl

#
# object Object001
#

v  -6.7495 0.0000 5.2470
v  -6.7495 0.0000 -0.0000
v  -2.2498 0.0000 -0.0000
v  -2.2498 0.0000 5.2470
v  0.0000 0.0000 -0.0000
v  0.0000 0.0000 5.2470
v  -6.7495 0.0000 -5.2470
v  -2.2498 0.0000 -5.2470
v  0.0000 0.0000 -5.2470
v  -2.2498 60.4889 5.2470
v  -6.7495 60.4889 5.2470
v  -6.7495 11.2153 5.2470
v  -2.2498 11.2153 5.2470
v  -6.7495 60.4889 -0.0000
v  -6.7495 11.2153 -0.0000
v  -6.7495 60.4889 -5.2470
v  -6.7495 11.2153 -5.2470
v  -2.2498 60.4889 -5.2470
v  -2.2498 11.2153 -5.2470
v  0.0000 60.4889 -5.2470
v  0.0000 11.2153 -5.2470
v  0.0000 60.4889 5.2470
v  0.0000 11.2153 5.2470
v  -16.6449 11.2153 15.1424
v  -16.6449 8.7479 15.1424
v  -2.2498 8.7479 19.2412
v  -2.2498 11.2153 19.2412
v  -20.7437 11.2153 -0.0000
v  -20.7437 8.7479 -0.0000
v  -16.6449 11.2153 -15.1424
v  -16.6449 8.7479 -15.1424
v  -2.2498 11.2153 -19.2412
v  -2.2498 8.7479 -19.2412
v  0.0000 11.2153 -18.4819
v  0.0000 8.7479 -18.4819
v  -1.3632 29.3780 5.2996
v  -6.8003 29.3780 5.2996
v  -7.8694 29.3780 6.2874
v  -1.4315 29.3780 7.9368
v  -6.8003 29.3780 -0.0000
v  -9.7609 29.3780 -0.0000
v  -6.8003 29.3780 -5.2996
v  -7.8694 29.3780 -6.2874
v  -1.3632 29.3780 -5.2995
v  -1.4315 29.3780 -7.9368
v  -0.0000 29.3780 -5.2996
v  -0.0000 29.3780 -7.5021
v  -2.2498 0.0000 19.2412
v  -16.6449 0.0000 15.1424
v  0.0000 0.0000 18.4819
v  -16.6449 0.0000 -15.1424
v  -2.2498 0.0000 -19.2412
v  -20.7437 0.0000 -0.0000
v  0.0000 8.7479 18.4819
v  0.0000 11.2153 18.4819
v  -0.0000 29.3780 5.2996
v  -0.0000 29.3780 7.5021
v  0.0000 0.0000 -18.4819
v  6.7495 0.0000 5.2470
v  2.2498 0.0000 5.2470
v  2.2498 0.0000 -0.0000
v  6.7495 0.0000 -0.0000
v  2.2498 0.0000 -5.2470
v  6.7495 0.0000 -5.2470
v  2.2498 60.4889 5.2470
v  2.2498 11.2153 5.2470
v  6.7495 11.2153 5.2470
v  6.7495 60.4889 5.2470
v  6.7495 11.2153 -0.0000
v  6.7495 60.4889 -0.0000
v  6.7495 11.2153 -5.2470
v  6.7495 60.4889 -5.2470
v  2.2498 11.2153 -5.2470
v  2.2498 60.4889 -5.2470
v  2.2498 8.7479 19.2412
v  16.6449 8.7479 15.1424
v  16.6449 11.2153 15.1424
v  2.2498 11.2153 19.2412
v  20.7437 8.7479 -0.0000
v  20.7437 11.2153 -0.0000
v  16.6449 8.7479 -15.1424
v  16.6449 11.2153 -15.1424
v  2.2498 8.7479 -19.2412
v  2.2498 11.2153 -19.2412
v  1.3632 29.3780 5.2996
v  1.4315 29.3780 7.9368
v  7.8694 29.3780 6.2874
v  6.8003 29.3780 5.2996
v  9.7609 29.3780 -0.0000
v  6.8003 29.3780 -0.0000
v  7.8694 29.3780 -6.2874
v  6.8003 29.3780 -5.2996
v  1.4315 29.3780 -7.9368
v  1.3632 29.3780 -5.2995
v  16.6449 0.0000 15.1424
v  2.2498 0.0000 19.2412
v  2.2498 0.0000 -19.2412
v  16.6449 0.0000 -15.1424
v  20.7437 0.0000 -0.0000
v  2.2498 22.9020 2.2742
v  3.7767 22.9020 2.2742
v  3.7767 22.9020 -0.0000
v  0.0000 22.9020 2.2742
v  3.7767 22.9020 -2.2742
v  2.2498 22.9020 -2.2742
v  0.0000 22.9020 -2.2742
v  -2.2498 22.9020 -2.2742
v  -3.7767 22.9020 -2.2742
v  -3.7767 22.9020 -0.0000
v  -2.2498 22.9020 2.2742
v  -3.7767 22.9020 2.2742
v  -21.9075 0.0000 20.3375
v  -2.0721 0.0000 26.6339
v  -2.0721 8.7479 26.6339
v  -21.9075 8.7479 20.3375
v  -28.1385 0.0000 -0.0000
v  -28.1385 8.7479 -0.0000
v  -21.9075 0.0000 -20.3375
v  -21.9075 8.7479 -20.3375
v  -2.0721 0.0000 -26.6339
v  -2.0721 8.7479 -26.6339
v  0.0000 0.0000 -25.8768
v  0.0000 8.7479 -25.8768
v  0.0000 0.0000 25.8768
v  0.0000 8.7479 25.8768
v  2.0721 0.0000 26.6339
v  21.9075 0.0000 20.3375
v  21.9075 8.7479 20.3375
v  2.0721 8.7479 26.6339
v  28.1385 0.0000 -0.0000
v  28.1385 8.7479 -0.0000
v  21.9075 0.0000 -20.3375
v  21.9075 8.7479 -20.3375
v  2.0721 0.0000 -26.6339
v  2.0721 8.7479 -26.6339
v  -6.8003 11.2153 5.2996
v  -1.3632 11.2153 5.2996
v  -6.8003 11.2153 -0.0000
v  -6.8003 11.2153 -5.2996
v  -1.3632 11.2153 -5.2996
v  -0.0000 11.2153 -5.2996
v  1.3632 11.2153 -5.2996
v  6.8003 11.2153 -5.2996
v  6.8003 11.2153 -0.0000
v  6.8003 11.2153 5.2996
v  1.3632 11.2153 5.2996
v  -0.0000 11.2153 5.2996
v  -1.4315 11.2153 7.9368
v  -7.8694 11.2153 6.2874
v  -0.0000 11.2153 7.5021
v  1.4315 11.2153 7.9368
v  7.8694 11.2153 6.2874
v  9.7609 11.2153 -0.0000
v  7.8694 11.2153 -6.2874
v  1.4315 11.2153 -7.9368
v  -0.0000 11.2153 -7.5021
v  -1.4315 11.2153 -7.9368
v  -7.8694 11.2153 -6.2874
v  -9.7609 11.2153 -0.0000
v  -2.2498 60.4889 2.2742
v  -3.7767 60.4889 2.2742
v  0.0000 60.4889 2.2742
v  2.2498 60.4889 2.2742
v  3.7767 60.4889 2.2742
v  3.7767 60.4889 -0.0000
v  3.7767 60.4889 -2.2742
v  2.2498 60.4889 -2.2742
v  0.0000 60.4889 -2.2742
v  -2.2498 60.4889 -2.2742
v  -3.7767 60.4889 -2.2742
v  -3.7767 60.4889 -0.0000
# 171 vertices

vn 0.0000 -1.0000 -0.0000
vn 0.0000 0.0000 1.0000
vn -1.0000 0.0000 -0.0000
vn 0.0000 0.0000 -1.0000
vn -0.2739 0.0000 0.9618
vn -0.9653 0.0000 0.2613
vn -0.9653 0.0000 -0.2613
vn -0.2739 0.0000 -0.9618
vn 0.3198 0.0000 -0.9475
vn 0.0000 1.0000 -0.0000
vn -0.0000 1.0000 0.0000
vn 0.0000 1.0000 0.0000
vn 0.3198 0.0000 0.9475
vn 1.0000 0.0000 -0.0000
vn 0.2739 0.0000 0.9618
vn 0.9653 0.0000 0.2613
vn 0.9653 0.0000 -0.2613
vn 0.2739 0.0000 -0.9618
vn -0.3198 0.0000 -0.9475
vn -0.3198 0.0000 0.9475
vn -0.3026 0.0000 0.9531
vn -0.9561 0.0000 0.2929
vn -0.9561 0.0000 -0.2929
vn -0.3026 0.0000 -0.9531
vn 0.3432 0.0000 -0.9393
vn 0.3432 0.0000 0.9393
vn 0.3026 0.0000 0.9531
vn 0.9561 0.0000 0.2929
vn 0.9561 0.0000 -0.2929
vn 0.3026 0.0000 -0.9531
vn -0.3432 0.0000 -0.9393
vn -0.3432 0.0000 0.9393
vn -0.0000 1.0000 -0.0000
vn -0.0000 -0.0000 1.0000
vn 0.0000 -0.0000 1.0000
vn -0.2482 0.0000 0.9687
vn 0.2906 0.0000 0.9569
vn -0.2906 0.0000 0.9569
vn 0.2482 0.0000 0.9687
vn 0.9576 0.0000 0.2881
vn 0.9576 -0.0000 -0.2881
vn 0.2482 0.0000 -0.9687
vn -0.2906 0.0000 -0.9569
vn 0.2906 0.0000 -0.9569
vn -0.2482 0.0000 -0.9687
vn -0.9576 -0.0000 -0.2881
vn -0.9576 0.0000 0.2881
# 47 vertex normals

vt 0.8000 0.2500 0.0000
vt 0.8000 0.5000 0.0000
vt 0.6000 0.5000 0.0000
vt 0.6000 0.2500 0.0000
vt 0.5000 0.5000 0.0000
vt 0.5000 0.2500 0.0000
vt 0.8000 0.7500 0.0000
vt 0.6000 0.7500 0.0000
vt 0.5000 0.7500 0.0000
vt 0.5815 0.7500 0.0000
vt 0.5815 0.2500 0.0000
# 11 texture coords

g Object001
usemtl wire_006135006
s 2
f 1/1/1 2/2/1 3/3/1 4/4/1 
f 3/3/1 5/5/1 6/6/1 4/4/1 
f 2/2/1 7/7/1 8/8/1 3/3/1 
f 8/8/1 9/9/1 5/5/1 3/3/1 
s off
f 10/4/2 11/1/2 12/1/2 13/4/2 
f 11/1/3 14/2/3 15/2/3 12/1/3 
f 14/2/3 16/7/3 17/7/3 15/2/3 
f 16/7/4 18/8/4 19/8/4 17/7/4 
f 18/8/4 20/9/4 21/9/4 19/8/4 
f 22/6/2 10/4/2 13/4/2 23/6/2 
f 24/1/5 25/1/5 26/4/5 27/4/5 
f 28/2/6 29/2/6 25/1/6 24/1/6 
f 30/7/7 31/7/7 29/2/7 28/2/7 
f 32/8/8 33/8/8 31/7/8 30/7/8 
f 34/10/9 35/10/9 33/8/9 32/8/9 
f 36/4/10 37/1/10 38/1/10 39/4/10 
f 37/1/10 40/2/10 41/2/10 38/1/10 
f 40/2/10 42/7/10 43/7/10 41/2/10 
f 42/7/11 44/8/11 45/8/11 43/7/11 
f 44/8/12 46/9/12 47/10/12 45/8/12 
f 1/1/1 4/4/1 48/4/1 49/1/1 
f 4/4/1 6/6/1 50/11/1 48/4/1 
f 8/8/1 7/7/1 51/7/1 52/8/1 
f 7/7/1 2/2/1 53/2/1 51/7/1 
f 2/2/1 1/1/1 49/1/1 53/2/1 
f 27/4/13 26/4/13 54/11/13 55/11/13 
f 56/6/10 36/4/10 39/4/10 57/11/10 
f 9/9/1 8/8/1 52/8/1 58/10/1 
s 2
f 59/1/1 60/4/1 61/3/1 62/2/1 
f 61/3/1 60/4/1 6/6/1 5/5/1 
f 62/2/1 61/3/1 63/8/1 64/7/1 
f 63/8/1 61/3/1 5/5/1 9/9/1 
s off
f 65/4/2 66/4/2 67/1/2 68/1/2 
f 68/1/14 67/1/14 69/2/14 70/2/14 
f 70/2/14 69/2/14 71/7/14 72/7/14 
f 72/7/4 71/7/4 73/8/4 74/8/4 
f 74/8/4 73/8/4 21/9/4 20/9/4 
f 22/6/2 23/6/2 66/4/2 65/4/2 
f 75/4/15 76/1/15 77/1/15 78/4/15 
f 76/1/16 79/2/16 80/2/16 77/1/16 
f 79/2/17 81/7/17 82/7/17 80/2/17 
f 81/7/18 83/8/18 84/8/18 82/7/18 
f 83/8/19 35/10/19 34/10/19 84/8/19 
f 85/4/10 86/4/10 87/1/10 88/1/10 
f 88/1/10 87/1/10 89/2/10 90/2/10 
f 90/2/10 89/2/10 91/7/10 92/7/10 
f 92/7/12 91/7/12 93/8/12 94/8/12 
f 94/8/11 93/8/11 47/10/11 46/9/11 
f 59/1/1 95/1/1 96/4/1 60/4/1 
f 60/4/1 96/4/1 50/11/1 6/6/1 
f 63/8/1 97/8/1 98/7/1 64/7/1 
f 64/7/1 98/7/1 99/2/1 62/2/1 
f 62/2/1 99/2/1 95/1/1 59/1/1 
f 54/11/20 75/4/20 78/4/20 55/11/20 
f 56/6/10 57/11/10 86/4/10 85/4/10 
f 9/9/1 58/10/1 97/8/1 63/8/1 
f 100/4/10 101/1/10 102/2/10 103/6/10 
f 102/2/10 104/7/10 105/8/10 106/9/10 
f 107/8/10 108/7/10 109/2/10 106/9/10 
f 102/2/10 106/9/10 109/2/10 103/6/10 
f 110/4/10 103/6/10 109/2/10 111/1/10 
f 112/1/21 113/4/21 114/4/21 115/1/21 
f 116/2/22 112/1/22 115/1/22 117/2/22 
f 118/7/23 116/2/23 117/2/23 119/7/23 
f 120/8/24 118/7/24 119/7/24 121/8/24 
f 122/10/25 120/8/25 121/8/25 123/10/25 
f 113/4/26 124/11/26 125/11/26 114/4/26 
f 126/4/27 127/1/27 128/1/27 129/4/27 
f 127/1/28 130/2/28 131/2/28 128/1/28 
f 130/2/29 132/7/29 133/7/29 131/2/29 
f 132/7/30 134/8/30 135/8/30 133/7/30 
f 134/8/31 122/10/31 123/10/31 135/8/31 
f 124/11/32 126/4/32 129/4/32 125/11/32 
f 49/1/1 48/4/1 113/4/1 112/1/1 
f 48/4/1 50/11/1 124/11/1 113/4/1 
f 50/11/1 96/4/1 126/4/1 124/11/1 
f 96/4/1 95/1/1 127/1/1 126/4/1 
f 95/1/1 99/2/1 130/2/1 127/1/1 
f 99/2/1 98/7/1 132/7/1 130/2/1 
f 98/7/1 97/8/1 134/8/1 132/7/1 
f 97/8/1 58/10/1 122/10/1 134/8/1 
f 58/10/1 52/8/1 120/8/1 122/10/1 
f 52/8/1 51/7/1 118/7/1 120/8/1 
f 51/7/1 53/2/1 116/2/1 118/7/1 
f 53/2/1 49/1/1 112/1/1 116/2/1 
f 26/4/10 25/1/10 115/1/10 114/4/10 
f 25/1/10 29/2/10 117/2/10 115/1/10 
f 29/2/10 31/7/10 119/7/10 117/2/10 
f 31/7/10 33/8/10 121/8/10 119/7/10 
f 33/8/12 35/10/12 123/10/12 121/8/12 
f 35/10/11 83/8/11 135/8/11 123/10/11 
f 83/8/10 81/7/10 133/7/10 135/8/10 
f 81/7/10 79/2/10 131/2/10 133/7/10 
f 79/2/10 76/1/10 128/1/10 131/2/10 
f 76/1/10 75/4/10 129/4/10 128/1/10 
f 75/4/10 54/11/10 125/11/10 129/4/10 
f 54/11/10 26/4/10 114/4/10 125/11/10 
f 13/4/10 12/1/10 136/1/10 137/4/10 
f 12/1/10 15/2/10 138/2/10 136/1/10 
f 15/2/10 17/7/10 139/7/10 138/2/10 
f 17/7/10 19/8/10 140/8/10 139/7/10 
f 19/8/10 21/9/10 141/9/10 140/8/10 
f 21/9/10 73/8/10 142/8/10 141/9/10 
f 73/8/10 71/7/10 143/7/10 142/8/10 
f 71/7/10 69/2/10 144/2/10 143/7/10 
f 69/2/10 67/1/10 145/1/10 144/2/10 
f 67/1/10 66/4/10 146/4/10 145/1/10 
f 66/4/10 23/6/10 147/6/10 146/4/10 
f 23/6/10 13/4/10 137/4/10 147/6/10 
f 24/1/10 27/4/10 148/4/10 149/1/10 
f 27/4/10 55/11/10 150/11/10 148/4/10 
f 55/11/10 78/4/10 151/4/10 150/11/10 
f 78/4/10 77/1/10 152/1/10 151/4/10 
f 77/1/10 80/2/10 153/2/10 152/1/10 
f 80/2/10 82/7/10 154/7/10 153/2/10 
f 82/7/10 84/8/10 155/8/10 154/7/10 
f 84/8/33 34/10/33 156/10/33 155/8/33 
f 34/10/10 32/8/10 157/8/10 156/10/10 
f 32/8/33 30/7/33 158/7/33 157/8/33 
f 30/7/10 28/2/10 159/2/10 158/7/10 
f 28/2/10 24/1/10 149/1/10 159/2/10 
f 137/4/4 136/1/4 37/1/4 36/4/4 
f 136/1/14 138/2/14 40/2/14 37/1/14 
f 138/2/14 139/7/14 42/7/14 40/2/14 
f 139/7/34 140/8/34 44/8/34 42/7/34 
f 140/8/35 141/9/35 46/9/35 44/8/35 
f 141/9/34 142/8/34 94/8/34 46/9/34 
f 142/8/35 143/7/35 92/7/35 94/8/35 
f 143/7/3 144/2/3 90/2/3 92/7/3 
f 144/2/3 145/1/3 88/1/3 90/2/3 
f 145/1/4 146/4/4 85/4/4 88/1/4 
f 146/4/4 147/6/4 56/6/4 85/4/4 
f 147/6/4 137/4/4 36/4/4 56/6/4 
f 149/1/36 148/4/36 39/4/36 38/1/36 
f 148/4/37 150/11/37 57/11/37 39/4/37 
f 150/11/38 151/4/38 86/4/38 57/11/38 
f 151/4/39 152/1/39 87/1/39 86/4/39 
f 152/1/40 153/2/40 89/2/40 87/1/40 
f 153/2/41 154/7/41 91/7/41 89/2/41 
f 154/7/42 155/8/42 93/8/42 91/7/42 
f 155/8/43 156/10/43 47/10/43 93/8/43 
f 156/10/44 157/8/44 45/8/44 47/10/44 
f 157/8/45 158/7/45 43/7/45 45/8/45 
f 158/7/46 159/2/46 41/2/46 43/7/46 
f 159/2/47 149/1/47 38/1/47 41/2/47 
f 11/1/10 10/4/10 160/4/10 161/1/10 
f 10/4/10 22/6/10 162/6/10 160/4/10 
f 22/6/10 65/4/10 163/4/10 162/6/10 
f 65/4/10 68/1/10 164/1/10 163/4/10 
f 68/1/10 70/2/10 165/2/10 164/1/10 
f 70/2/10 72/7/10 166/7/10 165/2/10 
f 72/7/10 74/8/10 167/8/10 166/7/10 
f 74/8/10 20/9/10 168/9/10 167/8/10 
f 20/9/10 18/8/10 169/8/10 168/9/10 
f 18/8/10 16/7/10 170/7/10 169/8/10 
f 16/7/10 14/2/10 171/2/10 170/7/10 
f 14/2/10 11/1/10 161/1/10 171/2/10 
f 161/1/4 160/4/4 110/4/4 111/1/4 
f 160/4/4 162/6/4 103/6/4 110/4/4 
f 162/6/4 163/4/4 100/4/4 103/6/4 
f 163/4/4 164/1/4 101/1/4 100/4/4 
f 164/1/3 165/2/3 102/2/3 101/1/3 
f 165/2/3 166/7/3 104/7/3 102/2/3 
f 166/7/2 167/8/2 105/8/2 104/7/2 
f 167/8/2 168/9/2 106/9/2 105/8/2 
f 168/9/2 169/8/2 107/8/2 106/9/2 
f 169/8/2 170/7/2 108/7/2 107/8/2 
f 170/7/14 171/2/14 109/2/14 108/7/14 
f 171/2/14 161/1/14 111/1/14 109/2/14 
# 169 polygons

